<?xml version="1.0" encoding="UTF-8"?>
<!DOCTYPE svg PUBLIC "-//W3C//DTD SVG 1.1//EN" "http://www.w3.org/Graphics/SVG/1.1/DTD/svg11.dtd">
<!-- Creator: CorelDRAW X7 -->
<svg xmlns="http://www.w3.org/2000/svg" xml:space="preserve" width="8.5in" height="11in" version="1.1" style="shape-rendering:geometricPrecision; text-rendering:geometricPrecision; image-rendering:optimizeQuality; fill-rule:evenodd; clip-rule:evenodd"
viewBox="0 0 8500 11000"
 xmlns:xlink="http://www.w3.org/1999/xlink">
 <defs>
  <style type="text/css">
   <![CDATA[
    .fil0 {fill:#332C2B}
   ]]>
  </style>
 </defs>
 <g id="Layer_x0020_1">
  <metadata id="CorelCorpID_0Corel-Layer"/>
  <path class="fil0" d="M5782 2667c215,12 393,127 539,280 93,98 187,214 276,318l0 24c-93,-106 -190,-229 -288,-331 -142,-149 -317,-263 -528,-275 -5,-1 -8,-4 -8,-9 1,-4 4,-8 9,-7zm815 4459c-84,0 -153,69 -153,154 0,85 69,154 153,154l0 -17c-75,0 -137,-61 -137,-137 0,-76 62,-137 137,-137l0 -17zm-2906 1157c-233,95 -451,52 -652,-94 -87,-62 -156,-138 -230,-214 -79,-80 -155,-148 -258,-199 -119,-58 -245,-80 -378,-64 -108,13 -191,43 -270,84l0 -19c78,-40 161,-69 268,-81 136,-16 265,5 388,66 104,51 181,120 262,202 73,75 142,150 228,212 196,142 408,184 635,92 5,-2 10,0 11,4 2,4 0,9 -4,11zm-344 -5354c85,0 154,69 154,154 0,85 -69,154 -154,154 -85,0 -154,-69 -154,-154 0,-85 69,-154 154,-154zm0 16c76,0 137,62 137,138 0,76 -61,137 -137,137 -76,0 -138,-61 -138,-137 0,-76 62,-138 138,-138z"/>
 </g>
</svg>
